<svg aria-hidden="true" style="position: absolute; width: 0; height: 0; overflow: hidden;" version="1.1"
	xmlns="http://www.w3.org/2000/svg" xmlns:xlink="http://www.w3.org/1999/xlink">
	<defs>
		<symbol id="icon-menu" viewBox="0 0 53 32">
			<path d="M0 0h53.333v3.556h-53.333zM0 14.222h53.333v3.556h-53.333zM0 28.444h26.667v3.556h-26.667z"></path>
		</symbol>
		<symbol id="icon-cart" viewBox="0 0 39 32">
			<path fill="#fff" style="fill: var(--color1, #fff)"
				d="M31.132 22.766h-13.174c-1.92 0-3.614-1.255-4.174-3.091l-3.967-13.008h23.562c2.931 0 5.029 2.833 4.174 5.636l-2.248 7.372c-0.56 1.836-2.254 3.091-4.174 3.091z">
			</path>
			<path fill="none" stroke="#fff" style="stroke: var(--color1, #fff)" stroke-linejoin="miter" stroke-linecap="butt"
				stroke-miterlimit="4" stroke-width="2.9091"
				d="M0 2.195h5.132c1.832 0 3.468 1.144 4.098 2.864l0.588 1.608M9.818 6.667l3.967 13.008c0.56 1.836 2.254 3.091 4.174 3.091h13.174c1.92 0 3.614-1.255 4.174-3.091l2.248-7.372c0.855-2.804-1.243-5.636-4.174-5.636h-23.562z">
			</path>
			<path fill="#fff" style="fill: var(--color1, #fff)"
				d="M21.507 28.377c0 1.549-1.256 2.805-2.805 2.805s-2.805-1.256-2.805-2.805c0-1.549 1.256-2.805 2.805-2.805s2.805 1.256 2.805 2.805z">
			</path>
			<path fill="#fff" style="fill: var(--color1, #fff)"
				d="M33.663 28.377c0 1.549-1.256 2.805-2.805 2.805s-2.805-1.256-2.805-2.805c0-1.549 1.256-2.805 2.805-2.805s2.805 1.256 2.805 2.805z">
			</path>
		</symbol>
		<symbol id="icon-favorite" viewBox="0 0 38 32">
			<path fill="none" stroke="#fff" style="stroke: var(--color1, #fff)" stroke-linejoin="round" stroke-linecap="butt"
				stroke-miterlimit="4" stroke-width="3.0476"
				d="M36.571 9.319c0 8.908-11.328 16.703-16.993 21.158-2.124 0-18.055-12.249-18.055-21.158 0-5.568 5.31-7.795 7.434-7.795 4.248 0 9.558 6.681 10.62 6.681s5.31-6.681 9.558-6.681c2.124 0 7.434 0 7.434 7.795z">
			</path>
		</symbol>
		<symbol id="icon-comparison" viewBox="0 0 45 32">
			<path fill="none" stroke="#fff" style="stroke: var(--color1, #fff)" stroke-linejoin="miter" stroke-linecap="butt"
				stroke-miterlimit="4" stroke-width="2.9091"
				d="M6.21 21.946h-2.537c-1.048 0-1.728 1.067-1.148 1.939 1.819 2.734 4.978 5.505 8.441 5.505s6.622-2.77 8.441-5.505c0.58-0.872-0.1-1.939-1.148-1.939h-2.537M6.21 21.946h9.512M6.21 21.946l3.404-8.583c0.486-1.225 2.219-1.225 2.704 0l3.404 8.583">
			</path>
			<path fill="none" stroke="#fff" style="stroke: var(--color1, #fff)" stroke-linejoin="miter" stroke-linecap="butt"
				stroke-miterlimit="4" stroke-width="2.9091"
				d="M29.369 21.946h-2.537c-1.048 0-1.728 1.067-1.148 1.939 1.819 2.734 4.978 5.505 8.441 5.505s6.622-2.77 8.441-5.505c0.58-0.872-0.1-1.939-1.148-1.939h-2.537M29.369 21.946h9.512M29.369 21.946l3.404-8.583c0.486-1.225 2.219-1.225 2.704 0l3.404 8.583">
			</path>
			<path fill="none" stroke="#fff" style="stroke: var(--color1, #fff)" stroke-linejoin="miter" stroke-linecap="butt"
				stroke-miterlimit="4" stroke-width="2.9091"
				d="M26.466 6.118c0 1.937-1.571 3.508-3.508 3.508s-3.508-1.571-3.508-3.508c0-1.937 1.571-3.508 3.508-3.508s3.508 1.571 3.508 3.508z">
			</path>
			<path fill="none" stroke="#fff" style="stroke: var(--color1, #fff)" stroke-linejoin="miter" stroke-linecap="round"
				stroke-miterlimit="4" stroke-width="2.9091" d="M9.726 8.276l9.098-1.654"></path>
			<path fill="none" stroke="#fff" style="stroke: var(--color1, #fff)" stroke-linejoin="miter" stroke-linecap="round"
				stroke-miterlimit="4" stroke-width="2.9091" d="M27.095 6.622l8.271 1.654"></path>
		</symbol>
		<symbol id="icon-search" viewBox="0 0 30 32">
			<path fill="none" stroke="#fff" style="stroke: var(--color1, #fff)" stroke-linejoin="round" stroke-linecap="round"
				stroke-miterlimit="4" stroke-width="1.8824" d="M28.235 30.631l-6.674-6.674"></path>
			<path fill="none" stroke="#fff" style="stroke: var(--color1, #fff)" stroke-linejoin="round" stroke-linecap="butt"
				stroke-miterlimit="4" stroke-width="1.8824"
				d="M25.754 14.717c0 6.852-5.555 12.406-12.406 12.406s-12.406-5.555-12.406-12.406c0-6.852 5.555-12.406 12.406-12.406s12.406 5.555 12.406 12.406z">
			</path>
		</symbol>
		<symbol id="icon-instagram" viewBox="0 0 32 32">
			<path fill="none" stroke-linejoin="miter" stroke-linecap="butt" stroke-miterlimit="4" stroke-width="1.6"
				d="M8 0.8h16c3.976 0 7.2 3.224 7.2 7.2v16c0 3.976-3.224 7.2-7.2 7.2h-16c-3.976 0-7.2-3.224-7.2-7.2v-16c0-3.976 3.224-7.2 7.2-7.2z">
			</path>
			<path fill="none" stroke-linejoin="miter" stroke-linecap="butt" stroke-miterlimit="4" stroke-width="1.6"
				d="M23.2 16c0 3.976-3.224 7.2-7.2 7.2s-7.2-3.224-7.2-7.2c0-3.976 3.224-7.2 7.2-7.2s7.2 3.224 7.2 7.2z"></path>
			<path fill="none" stroke-linejoin="miter" stroke-linecap="butt" stroke-miterlimit="4" stroke-width="1.6"
				d="M26.4 6.4c0 0.442-0.358 0.8-0.8 0.8s-0.8-0.358-0.8-0.8c0-0.442 0.358-0.8 0.8-0.8s0.8 0.358 0.8 0.8z"></path>
		</symbol>
		<symbol id="icon-youtube" viewBox="0 0 44 32">
			<path fill="none" stroke-linejoin="round" stroke-linecap="round" stroke-miterlimit="10" stroke-width="1.7778"
				d="M40.925 4.996c-1.109-1.913-2.311-2.265-4.762-2.399-2.448-0.161-8.605-0.226-13.937-0.226-5.342 0-11.503 0.065-13.948 0.226-2.445 0.136-3.65 0.485-4.77 2.399-1.142 1.913-1.731 5.203-1.731 10.998v0.022c0 5.77 0.589 9.085 1.731 10.974 1.118 1.911 2.322 2.26 4.77 2.42 2.445 0.136 8.602 0.218 13.948 0.218 5.332 0 11.489-0.082 13.939-0.218 2.45-0.161 3.653-0.51 4.762-2.42 1.156-1.892 1.739-5.206 1.739-10.974v-0.022c-0.003-5.795-0.583-9.085-1.742-10.998v0z">
			</path>
			<path fill="none" stroke-linejoin="round" stroke-linecap="round" stroke-miterlimit="10" stroke-width="1.7778"
				d="M18.132 22.814v-13.629l10.903 6.814-10.903 6.814z"></path>
		</symbol>
		<symbol id="icon-facebook" viewBox="0 0 19 32">
			<path fill="none" stroke-linejoin="miter" stroke-linecap="butt" stroke-miterlimit="4" stroke-width="1.6"
				d="M12 31.2h-4.8c-0.442 0-0.8-0.358-0.8-0.8v-11.2c0-0.442-0.358-0.8-0.8-0.8h-3.2c-0.442 0-0.8-0.358-0.8-0.8v-4c0-0.442 0.358-0.8 0.8-0.8h3.2c0.442 0 0.8-0.357 0.8-0.799v-4.001c0-3.2 2.4-7.2 5.6-7.2h5.6c0.442 0 0.8 0.358 0.8 0.8v4c0 0.442-0.358 0.8-0.8 0.8h-3.2c-1.28 0-1.6 1.067-1.6 1.6v4c0 0.442 0.358 0.8 0.8 0.8h3.878c0.487 0 0.861 0.431 0.792 0.913l-0.572 4c-0.056 0.394-0.394 0.687-0.792 0.687h-3.306c-0.442 0-0.8 0.358-0.8 0.8v11.2c0 0.442-0.358 0.8-0.8 0.8z">
			</path>
		</symbol>
		<symbol id="icon-close" viewBox="0 0 32 32">
			<path fill="none" stroke-linejoin="miter" stroke-linecap="butt" stroke-miterlimit="4" stroke-width="2.3704"
				d="M1.185 30.815l14.815-14.815M30.815 1.185l-14.815 14.815M16 16l14.815 14.815M16 16l-14.815-14.815"></path>
		</symbol>
		<symbol id="icon-burger-menu" viewBox="0 0 50 32">
			<path d="M0 0h50v4h-50v-4z"></path>
			<path d="M0 14h50v4h-50v-4z"></path>
			<path d="M0 28h50v4h-50v-4z"></path>
		</symbol>
		<symbol id="icon-user" viewBox="0 0 32 32">
			<path fill="none" stroke-linejoin="miter" stroke-linecap="butt" stroke-miterlimit="4" stroke-width="1.4545"
				d="M15.636 30.427h-11.635c-1.976 0-3.343-1.944-2.2-3.555 2.623-3.695 7.361-6.587 13.834-6.587s11.211 2.892 13.834 6.587c1.144 1.611-0.224 3.555-2.2 3.555h-11.635z">
			</path>
			<path fill="none" stroke-linejoin="miter" stroke-linecap="butt" stroke-miterlimit="4" stroke-width="1.4545"
				d="M25.474 10.143c0 5.2-4.215 9.415-9.415 9.415s-9.415-4.215-9.415-9.415c0-5.2 4.215-9.415 9.415-9.415s9.415 4.215 9.415 9.415z">
			</path>
		</symbol>
		<symbol id="icon-arrow-left" viewBox="0 0 29 32">
			<path fill="none" stroke-linejoin="miter" stroke-linecap="butt" stroke-miterlimit="4" stroke-width="2.6667"
				d="M16.272 2.027l-13.605 14.007M2.667 16.034l13.605 14.007M2.667 16.034h26.667"></path>
		</symbol>
		<symbol id="icon-arrow-right" viewBox="0 0 32 32">
			<path fill="none" stroke-linejoin="miter" stroke-linecap="butt" stroke-miterlimit="4" stroke-width="2.9091"
				d="M14.249 30.545l14.842-14.545M29.091 16l-14.842-14.545M29.091 16h-29.091"></path>
		</symbol>
		<symbol id="icon-facebook-colored" viewBox="0 0 33 32">
			<path fill="#1877f2" style="fill: var(--color1, #1877f2)"
				d="M32.305 16c0-8.837-7.163-16-16-16s-16 7.163-16 16c0 7.986 5.851 14.605 13.5 15.806v-11.18h-4.062v-4.625h4.062v-3.525c0-4.010 2.389-6.225 6.043-6.225 1.751 0 3.582 0.313 3.582 0.313v3.937h-2.018c-1.988 0-2.607 1.233-2.607 2.499v3.001h4.438l-0.709 4.625h-3.728v11.18c7.649-1.2 13.5-7.819 13.5-15.806z">
			</path>
			<path fill="#f5f5f5" style="fill: var(--color2, #f5f5f5)"
				d="M22.533 20.625l0.709-4.625h-4.438v-3.001c0-1.265 0.62-2.499 2.607-2.499h2.018v-3.938c0 0-1.831-0.313-3.582-0.313-3.655 0-6.043 2.215-6.043 6.225v3.525h-4.062v4.625h4.062v11.181c1.657 0.259 3.343 0.259 5 0v-11.181h3.728z">
			</path>
		</symbol>
		<symbol id="icon-google-colored" viewBox="0 0 32 32">
			<path fill="#4285f4" style="fill: var(--color3, #4285f4)"
				d="M31.488 16.297c0-1.3-0.106-2.249-0.334-3.233h-14.846v5.868h8.714c-0.176 1.458-1.124 3.654-3.233 5.13l-0.030 0.196 4.694 3.636 0.325 0.032c2.987-2.758 4.708-6.817 4.708-11.631z">
			</path>
			<path fill="#34a853" style="fill: var(--color4, #34a853)"
				d="M16.309 31.758c4.269 0 7.853-1.406 10.471-3.83l-4.99-3.865c-1.335 0.931-3.127 1.581-5.482 1.581-4.181 0-7.73-2.758-8.995-6.571l-0.185 0.016-4.881 3.777-0.064 0.177c2.6 5.165 7.941 8.714 14.125 8.714z">
			</path>
			<path fill="#fbbc05" style="fill: var(--color5, #fbbc05)"
				d="M7.314 19.073c-0.334-0.984-0.527-2.038-0.527-3.127s0.193-2.143 0.509-3.127l-0.009-0.21-4.942-3.838-0.162 0.077c-1.072 2.143-1.687 4.55-1.687 7.098s0.615 4.954 1.687 7.098l5.13-3.971z">
			</path>
			<path fill="#eb4335" style="fill: var(--color6, #eb4335)"
				d="M16.309 6.248c2.969 0 4.972 1.283 6.114 2.354l4.462-4.357c-2.741-2.547-6.307-4.111-10.576-4.111-6.184 0-11.525 3.549-14.125 8.714l5.113 3.971c1.283-3.812 4.832-6.571 9.013-6.571z">
			</path>
		</symbol>
		<symbol id="icon-logo" viewBox="0 0 138 32">
			<path
				d="M60.636 0.109c-4.364 0.418-8.491 1.727-11.073 3.509-1.691 1.164-3.818 3.636-4.782 5.564-1.218 2.4-1.818 5.691-1.636 8.8 0.4 6.527 3.891 11.509 9.309 13.309 1.273 0.418 1.327 0.418 12.091 0.491 7.236 0.036 11.4 0 12.582-0.145 4.455-0.509 7.8-2.582 9.855-6.091 1.091-1.873 1.673-3.745 2.018-6.509 0.509-4.073 0.636-4.764 0.982-5.218 0.4-0.545 1.509-0.873 3.036-0.891 0.909-0.018 1.164-0.091 1.491-0.436 0.455-0.473 0.509-1.327 0.145-1.8-0.4-0.545-1.036-0.655-2.818-0.491-3.145 0.291-4.564 1.473-5.127 4.255l-0.236 1.182h-17.745v-5.964c0-4.818-0.055-6.145-0.273-6.909-0.4-1.291-1.018-1.964-2.145-2.309-0.927-0.291-4.273-0.491-5.673-0.345zM65.527 3.273c0.182 0.2 0.273 0.873 0.309 2.273 0.091 2.891 0 6.091-0.145 6.091-0.091 0-0.836-1.164-1.673-2.6-2.182-3.673-2.255-3.764-3.091-3.764-0.436 0-0.818 0.127-1.091 0.382-0.673 0.636-0.436 1.4 1.418 4.418 0.909 1.473 1.655 2.727 1.655 2.764 0 0.2-0.527-0.073-3.182-1.582-1.6-0.909-3.109-1.727-3.364-1.8-1.055-0.291-2.2 0.745-1.836 1.673 0.236 0.618 0.564 0.855 3.564 2.509 1.509 0.818 2.891 1.618 3.091 1.745 0.309 0.218-0.8 0.255-7.418 0.255h-7.782l0.127-1.055c0.327-2.764 1.527-5.145 3.691-7.309 1.127-1.145 1.691-1.545 3.109-2.218 3.073-1.491 6.309-2.164 10.055-2.091 1.745 0.036 2.364 0.109 2.564 0.309zM86.182 18.964c0 0.782-0.673 3.109-1.236 4.273-1.291 2.673-2.964 4.127-5.764 5.091l-1.455 0.491h-11.818c-12.655 0-12.2 0.036-14.164-0.945-2.636-1.291-4.727-4.291-5.473-7.855-0.127-0.655-0.2-1.255-0.164-1.327 0.055-0.073 9.091-0.145 20.091-0.145h19.982v0.418z">
			</path>
			<path
				d="M73.473 0.6c-0.327 0.109-1 0.564-1.473 1.036-1.091 1.055-1.455 2.327-1.109 3.745 0.491 1.945 3.509 5.364 6.036 6.836 1.673 1 1.982 0.945 4.109-0.636 2.182-1.636 3.836-3.382 4.527-4.8 0.455-0.909 0.527-1.273 0.527-2.545 0-1.345-0.055-1.545-0.545-2.255-0.873-1.218-1.345-1.473-2.873-1.582-1.236-0.073-1.455-0.036-2.273 0.418-0.509 0.273-1.109 0.691-1.327 0.927l-0.382 0.4-0.873-0.618c-1.582-1.145-2.836-1.418-4.345-0.927zM77.055 4.582c1.545 1.164 1.909 1.164 3.291-0.109 1.291-1.2 1.727-1.436 2.255-1.273s0.673 0.4 0.673 1.164c0 1.218-1.182 2.782-3.345 4.436l-1.382 1.073-0.764-0.509c-1.236-0.8-3.273-3.018-3.764-4.055-0.382-0.836-0.418-1-0.2-1.4 0.127-0.236 0.455-0.509 0.709-0.618 0.545-0.182 0.745-0.073 2.527 1.291z">
			</path>
			<path
				d="M1.073 3.182c-0.273 0.145-0.564 0.4-0.636 0.582-0.091 0.182-0.182 5.909-0.218 12.709l-0.055 12.4 0.564 0.473c1.091 0.909 2.582 0.382 2.855-1.018 0.127-0.618 0.164-0.618 0.982-0.073 1.545 1.055 4.564 1.6 6.618 1.218 5.145-0.964 8.545-6.182 7.255-11.182-1.2-4.655-5.655-7.6-10.382-6.873-1.327 0.218-3.073 0.909-3.982 1.582l-0.382 0.273-0.109-3.4c-0.073-1.891-0.127-4.036-0.127-4.8 0-1.291-0.036-1.418-0.455-1.691-0.655-0.436-1.382-0.509-1.927-0.2zM11.018 14.891c2.782 0.836 4.255 2.818 4.255 5.727 0 2.309-1.236 4.182-3.473 5.182-1.236 0.582-3.618 0.527-4.836-0.073-2.691-1.345-3.909-4.236-3.036-7.182 0.436-1.455 2.127-3.109 3.727-3.618 1.455-0.455 1.982-0.455 3.364-0.036z">
			</path>
			<path
				d="M7.382 18.745c-0.818 0.636-0.655 1.327 0.618 2.564 0.618 0.618 1.236 1.055 1.473 1.055 0.891 0 2.527-1.782 2.527-2.764 0-1.182-1.327-1.636-2.018-0.709l-0.4 0.545-0.491-0.545c-0.6-0.618-1.055-0.673-1.709-0.145z">
			</path>
			<path
				d="M101.545 3.073c-0.2 0.091-0.527 0.345-0.727 0.564-0.364 0.4-0.364 0.655-0.364 12.855v12.455l0.509 0.436c0.727 0.618 1.636 0.582 2.327-0.091 0.291-0.291 0.527-0.709 0.527-0.909 0-0.582 0.291-0.6 1.018-0.109 1.182 0.8 3.036 1.273 4.982 1.255 2.073 0 3.364-0.364 4.855-1.327 2.764-1.818 4.236-4.473 4.236-7.636 0-2.745-0.964-5-2.873-6.764-1.4-1.273-2.582-1.891-4.4-2.273-2.327-0.491-5.255 0.018-6.873 1.2-0.564 0.418-0.782 0.509-0.855 0.327-0.055-0.127-0.109-2.273-0.127-4.782l-0.055-4.527-0.618-0.418c-0.655-0.436-0.964-0.491-1.564-0.255zM111.6 14.964c2.582 0.891 4.2 3.364 3.982 6.055-0.109 1.436-0.691 2.582-1.8 3.636-1.382 1.291-2.2 1.564-4.327 1.491-1.745-0.055-1.818-0.073-2.836-0.782-1.945-1.345-2.655-2.691-2.673-5.036 0-1.018 0.109-1.436 0.582-2.4 1.345-2.764 4.218-3.945 7.073-2.964z">
			</path>
			<path
				d="M107.527 18.836c-0.364 0.345-0.436 0.564-0.345 0.927 0.255 1.018 1.855 2.6 2.618 2.6 0.491 0 1.891-1.291 2.273-2.091 0.345-0.709 0.164-1.4-0.418-1.709-0.582-0.327-0.927-0.236-1.491 0.364-0.291 0.309-0.527 0.473-0.527 0.364 0-0.364-0.727-0.927-1.182-0.927-0.255 0-0.673 0.2-0.927 0.473z">
			</path>
			<path
				d="M22.036 11.509c-0.691 0.4-0.927 0.945-1.127 2.6-0.818 7.255 0.891 13.127 4.327 14.873 1.964 1 4.255 1.036 7.109 0.109 1.509-0.473 2.036-0.455 2.873 0.109 1.273 0.873 2.691 0.218 2.691-1.218 0-0.673-0.109-0.855-0.855-1.509l-0.836-0.745-0.073-6.636c-0.055-4.636-0.127-6.745-0.273-7.018-0.345-0.618-1.218-0.891-1.891-0.618-1.055 0.436-1.055 0.436-1.182 7.491l-0.127 6.473-1.018 0.4c-1.109 0.436-3.073 0.655-4.109 0.473-0.891-0.182-1.964-1.182-2.436-2.309-0.764-1.745-0.964-3.4-0.909-7.527 0.018-2.109 0.018-3.964 0-4.145-0.018-0.345-1.018-1.036-1.473-1.036-0.145 0.018-0.455 0.109-0.691 0.236z">
			</path>
			<path
				d="M122.255 11.564c-0.8 0.4-0.964 0.891-1.182 3.636-0.218 2.709-0.018 5.927 0.491 8.055 1.327 5.455 5.327 7.655 10.745 5.927 1.8-0.564 2.255-0.564 3.145 0.018 0.873 0.582 1.782 0.491 2.364-0.236 0.673-0.855 0.327-2.073-0.8-2.764l-0.636-0.4-0.055-6.673c-0.055-7.164-0.073-7.345-1-7.691-0.618-0.236-1.618 0.091-1.909 0.618-0.164 0.291-0.255 2.273-0.327 6.818-0.073 5.436-0.127 6.436-0.364 6.582-0.782 0.509-2.782 0.945-4.055 0.891-1.564-0.091-2.236-0.473-2.982-1.745-1.055-1.8-1.218-2.818-1.255-7.691-0.018-2.455-0.036-4.564-0.055-4.691-0.018-0.236-1.073-0.945-1.382-0.945-0.091 0-0.436 0.127-0.745 0.291z">
			</path>
		</symbol>
	</defs>
</svg>